<?xml version="1.0" encoding="UTF-8" standalone="no"?>
<svg
   xmlns:dc="http://purl.org/dc/elements/1.1/"
   xmlns:cc="http://creativecommons.org/ns#"
   xmlns:rdf="http://www.w3.org/1999/02/22-rdf-syntax-ns#"
   xmlns:svg="http://www.w3.org/2000/svg"
   xmlns="http://www.w3.org/2000/svg"
   xmlns:sodipodi="http://sodipodi.sourceforge.net/DTD/sodipodi-0.dtd"
   xmlns:inkscape="http://www.inkscape.org/namespaces/inkscape"
   width="115.08622"
   height="132.81494"
   viewBox="0 0 92.068976 106.25196"
   version="1.1"
   id="svg2"
   inkscape:version="0.48.5 r10040"
   sodipodi:docname="cwise_logo_____-_Copy.svg.2016_12_02_11_25_38.0-2.svg"
   inkscape:export-filename="D:\Desktop\20161116 CWISE 玉井工商\20161201 海報事宜\cwise logo\cwise_logo_____-_Copy.svg.2016_12_02_11_16_41.0.png"
   inkscape:export-xdpi="300"
   inkscape:export-ydpi="300">
  <metadata
     id="metadata54">
    <rdf:RDF>
      <cc:Work
         rdf:about="">
        <dc:format>image/svg+xml</dc:format>
        <dc:type
           rdf:resource="http://purl.org/dc/dcmitype/StillImage" />
        <dc:title></dc:title>
      </cc:Work>
    </rdf:RDF>
  </metadata>
  <defs
     id="defs52" />
  <sodipodi:namedview
     pagecolor="#693464"
     bordercolor="#02a6cd"
     borderopacity="1"
     objecttolerance="10"
     gridtolerance="10"
     guidetolerance="10"
     inkscape:pageopacity="1"
     inkscape:pageshadow="2"
     inkscape:window-width="1920"
     inkscape:window-height="1057"
     id="namedview50"
     showgrid="false"
     inkscape:zoom="2.4722549"
     inkscape:cx="187.20207"
     inkscape:cy="13.420153"
     inkscape:window-x="1602"
     inkscape:window-y="892"
     inkscape:window-maximized="1"
     inkscape:current-layer="layer5"
     fit-margin-top="0"
     fit-margin-left="0"
     fit-margin-right="0"
     fit-margin-bottom="0"
     inkscape:showpageshadow="true"
     showborder="true"
     borderlayer="false" />
  <g
     inkscape:groupmode="layer"
     id="layer3"
     inkscape:label="所有資料"
     transform="translate(6.0428904,-4.7824197)"
     style="display:inline">
    <path
       inkscape:connector-curvature="0"
       style="fill:#ffffff"
       d="m 52.597108,25.01438 c 2.52,0.02 5.04,0.04 7.57,0.06 0.17,3.68 0.32,7.35 0.75,11.01 0.33,3.93 3.503591,7.506285 5.263591,10.866285 -1.813322,0.103968 -2.570529,0.08009 -4.533974,-0.01412 -0.423853,-0.02034 -1.085213,-0.366451 -1.430515,-0.741071 -2.531347,-2.038653 -5.330449,-3.929552 -7.838978,-6.628654 -0.87,-4.11 0.289876,-10.372445 0.219876,-14.55244 z"
       id="path26"
       sodipodi:nodetypes="ccccsccc"
       inkscape:export-filename="D:\Desktop\20161116 CWISE 玉井工商\20161201 海報事宜\cwise logo.png"
       inkscape:export-xdpi="60.099998"
       inkscape:export-ydpi="60.099998" />
    <path
       style="fill:#ffffff"
       d="M 93.71875 25.71875 C 92.419485 25.765436 91.138867 25.932617 89.875 26.1875 C 93.15 30.7625 95.21875 36 97.71875 41 C 99.89375 45.6125 105.18125 46.89375 108.96875 49.71875 C 112.88125 57.993749 112.19375 67.625001 110.84375 76.4375 C 107.39375 76.5125 103.93125 76.55 100.46875 76.5625 C 99.76875 68.712501 96.13125 61.55 90.84375 55.8125 C 88.328404 55.648701 86.788931 55.705614 87 56.28125 C 87.157867 56.711794 87.826063 58.407004 87.90625 59.25 C 88.504361 65.537618 85.0163 71.516397 82.46875 77.21875 C 82.245188 77.719164 81.297482 77.244768 80.75 77.4375 C 83.275 71.2625 88.8625 64.55 86.0625 57.625 C 80.45 50.45 72.69375 45.2875 65.59375 39.6875 C 63.65625 42.1875 61.75625 44.75 59.90625 47.3125 C 65.11875 51.5375 73.050658 56.624922 74.5625 60.59375 C 72.744795 65.697116 70.075 72.425 63.5 72 C 58.909173 69.540273 47.53125 60.53125 47.53125 60.53125 C 47.53125 60.53125 45.322909 63.096021 44.34375 64.25 C 44.360096 65.900486 44.336779 69.734359 44.53125 71.8125 C 45.899176 74.273469 49.477194 74.927983 50.4375 76.125 C 33.625001 76.1125 16.824999 76.88125 0 77.21875 C 1.0749999 91.768744 6.2812507 106.3875 16.84375 116.75 C 26.83125 126.175 40.112501 132.6625 54 132.8125 L 61.40625 132.8125 C 78.806249 132.4625 95.700001 123.01875 105.375 108.59375 C 113.3625 97.193751 116.15625 82.731249 114.71875 69.03125 C 114.39375 63.15625 112.86875 57.46875 111.78125 51.71875 C 110.44375 46.49375 115.9125 41.65625 113.4375 36.53125 C 110.07578 29.584375 102.55092 25.888193 95.03125 25.71875 C 94.597423 25.708975 94.151838 25.703188 93.71875 25.71875 z M 96.625 28.65625 C 99.8375 29.53125 103.35 30.375 105.625 33 C 108.9 36 109.24375 40.675 109.65625 44.8125 C 105.04375 39.65 101.25 33.81875 96.625 28.65625 z M 32.875 77.875 C 35.53475 77.875 37.6875 80.02225 37.6875 82.65625 C 37.6875 83.902573 37.196701 85.025412 36.40625 85.875 C 35.669232 91.340422 35.619059 96.879087 36.125 102.375 C 39.079199 98.146441 41.059073 93.405495 43.15625 88.71875 C 42.706251 88.124259 42.4375 87.393928 42.4375 86.59375 C 42.4375 84.627538 44.04579 83.03125 46.03125 83.03125 C 48.01671 83.03125 49.625 84.627513 49.625 86.59375 C 49.625 87.442565 49.313192 88.23201 48.8125 88.84375 C 48.815763 88.897961 48.8125 88.944073 48.8125 89 C 48.7375 93.062495 48.725 97.14375 49.875 101.09375 C 50.851911 98.363632 51.573701 95.584539 52.25 92.78125 C 51.924399 92.245702 51.71875 91.608196 51.71875 90.9375 C 51.71875 88.971288 53.35829 87.375 55.34375 87.375 C 57.32921 87.375 58.9375 88.971263 58.9375 90.9375 C 58.9375 92.48238 57.920181 93.788629 56.53125 94.28125 C 54.634532 98.017955 52.8724 101.79059 52.28125 105.9375 C 52.773383 106.60206 53.0625 107.39395 53.0625 108.28125 C 53.0625 110.49879 51.239246 112.3125 49 112.3125 C 46.760753 112.3125 44.96875 110.49882 44.96875 108.28125 C 44.96875 107.14103 45.448009 106.13712 46.21875 105.40625 C 46.227604 101.38574 45.968382 97.372059 45.5625 93.375 C 43.185417 97.486435 41.446947 101.93216 39.625 106.3125 C 39.806326 106.76785 39.90625 107.26208 39.90625 107.78125 C 39.90625 109.99634 38.111771 111.78125 35.875 111.78125 C 33.638229 111.78125 31.8125 109.99637 31.8125 107.78125 C 31.8125 106.57543 32.368242 105.51645 33.21875 104.78125 C 32.916872 103.00319 32.467756 101.29923 32.21875 99.09375 C 31.875927 94.930897 30.787516 90.808325 30.3125 86.65625 C 28.966814 85.810528 28.0625 84.351466 28.0625 82.65625 C 28.0625 80.022284 30.215251 77.875 32.875 77.875 z M 60.34375 89.25 C 61.76875 89.6625 63.18125 90.0875 64.59375 90.5 C 64.65625 97.387495 64.38125 104.28125 63.90625 111.15625 L 60.21875 111.15625 C 59.55625 103.86875 59.56875 96.524995 60.34375 89.25 z M 20.53125 89.5 C 23.925586 89.426172 27.35625 91.596879 29.15625 94.4375 C 29.45625 96.1875 29.253694 97.76443 27.03125 97.0625 C 23.75625 95.2 22.26875 93.025 17.96875 95.5 C 14.24375 98.425 15.063933 102.80049 17.625 106.09375 C 24.121322 107.6287 22.686533 106.77099 27.375 103.84375 C 28.849492 102.54989 30.38137 104.57402 28.71875 107.0625 C 25.13125 111.8625 16.975 112.45625 13 108.15625 C 9.0125003 102.59375 10.518754 93.174995 17.21875 90.375 C 18.278125 89.784375 19.399805 89.524609 20.53125 89.5 z M 75.84375 89.5625 C 78.009076 89.555002 80.144531 90.278127 81.8125 91.875 C 82.302924 92.15087 85.12441 93.99164 83.375 95.875 C 82.697571 96.60429 77.504377 94.00964 76.46875 94.25 C 74.013999 94.81973 72.832362 94.6093 72.0625 95.46875 C 71.050599 96.59839 78.875 99.5 78.875 99.5 C 81.6952 101.37164 84.01875 102.75 83.84375 105.25 C 82.55625 110.6875 75.4 113.0875 70.75 110.375 C 67.675 109 67.101916 105.9375 67.59375 103.1875 C 68.409927 102.38894 71.89375 105.40625 74.71875 106.53125 C 76.53125 106.16875 78.175 105.35 79.875 104.6875 C 75.975 102.375 71.125 101.5 67.9375 98.125 C 66.3625 96.625 67.25625 94.3625 68.34375 92.875 C 70.249219 90.786722 73.05976 89.572141 75.84375 89.5625 z M 102.1875 90.25 C 102.1125 91.0625 101.98125 92.6875 101.90625 93.5 C 98.23125 93.875 94.56875 94.26875 90.90625 94.65625 C 90.90625 95.28125 90.925 96.5625 90.9375 97.1875 C 94.2 97.6 97.475 98.0125 100.75 98.4375 C 100.75 99.05 100.73125 100.3125 100.71875 100.9375 C 97.44375 101.3625 94.1625 101.78125 90.875 102.21875 L 90.875 105.9375 C 94.55 106.3375 98.21875 106.75 101.90625 107.125 C 101.96875 107.9375 102.1125 109.5625 102.1875 110.375 C 96.925 110.3125 91.65625 110.05 86.40625 109.6875 C 85.88125 103.45 85.88125 97.174995 86.40625 90.9375 C 91.65625 90.575 96.925 90.3 102.1875 90.25 z "
       transform="matrix(0.80000005,0,0,0.80000005,-6.0428933,4.7824197)"
       id="path28" />
    <path
       inkscape:connector-curvature="0"
       style="fill:#ffffff"
       d="m 9.8171078,45.03438 c 6.3000002,-4.58 14.2700002,-5.77 21.5900002,-7.92 0.21,0.8 0.65,2.4 0.86,3.2 -5.38,1.65 -10.8,3.17 -16.17,4.84 -0.33,1.96 -0.67,3.91 -1.01,5.87 -1.34,-0.03 -2.68,-0.07 -4.02,-0.12 -0.4,-1.96 -0.82,-3.91 -1.2500002,-5.87 z"
       id="path32" />
    <path
       inkscape:connector-curvature="0"
       style="fill:#ffffff"
       d="m 3.4671078,45.13438 c 0.89,0.02 2.67,0.05 3.56,0.07 -0.12,3.46 -0.34,6.91 -0.42,10.38 7.3200002,0.16 14.6300002,0.73 21.9600002,0.9 0.03,1.92 0.05,3.84 0.07,5.76 -5.66,0.87 -11.35,-0.31 -17.02,-0.16 -5.6200002,-0.07 -11.2800002,1.21 -16.8500002,-0.04 -0.05,-1.74 -0.09,-3.48 -0.11,-5.22 1.48,-0.49 3,-0.91 4.43,-1.56 2.06,-3.07 2.9,-6.77 4.38,-10.13 z"
       id="path34" />
    <path
       inkscape:connector-curvature="0"
       style="fill:#ffffff"
       d="m 24.737108,46.17438 c 1.85,1.45 3.740449,3.557182 5.630449,4.947182 -1.036734,1.201347 -2.275712,2.150001 -3.069752,3.189552 -2.906858,0.0073 -4.650697,-0.101347 -8.002942,-0.256409 1.77,-2.3 3.712245,-5.550325 5.442245,-7.880325 z"
       id="path36"
       sodipodi:nodetypes="ccccc" />
    <path
       d="m 46.515188,48.780014 c 3.903792,1.970325 5.552894,3.414366 5.604489,4.928855 -1.148653,2.687631 -3.031671,7.001099 -5.711671,7.491099 -1.73,-0.01 -4.574365,-2.365263 -6.124365,-3.025263 1.37,-2.42 4.761547,-7.024691 6.231547,-9.394691 z"
       id="path38"
       inkscape:connector-curvature="0"
       style="fill:#ffffff"
       sodipodi:nodetypes="ccccc" />
    <path
       sodipodi:type="star"
       style="fill:#ffffff;fill-opacity:1;fill-rule:evenodd;stroke:none"
       id="path4400"
       sodipodi:sides="5"
       sodipodi:cx="56.308804"
       sodipodi:cy="17.792862"
       sodipodi:r1="4.0963378"
       sodipodi:r2="2.0481689"
       sodipodi:arg1="0.94405343"
       sodipodi:arg2="1.572372"
       inkscape:flatsided="false"
       inkscape:rounded="0"
       inkscape:randomized="0"
       d="m 58.711346,21.110658 -2.40577,-1.26963 -2.409758,1.262043 0.464066,-2.68036 -1.94493,-1.901824 2.692578,-0.386923 1.207726,-2.437435 1.200038,2.441228 2.691346,0.395407 -1.950914,1.895685 z"
       inkscape:transform-center-x="-0.0019944427"
       inkscape:transform-center-y="-0.38926813" />
    <circle
       style="fill:#ffffff;fill-opacity:1;fill-rule:evenodd;stroke:none"
       id="path4404"
       cx="59.512192"
       cy="8.1826916"
       r="1.4872881"
       d="m 60.99948,8.1826916 c 0,0.8214065 -0.665882,1.4872881 -1.487288,1.4872881 -0.821407,0 -1.487288,-0.6658816 -1.487288,-1.4872881 0,-0.8214066 0.665881,-1.4872881 1.487288,-1.4872881 0.821406,0 1.487288,0.6658815 1.487288,1.4872881 z"
       sodipodi:cx="59.512192"
       sodipodi:cy="8.1826916"
       sodipodi:rx="1.4872881"
       sodipodi:ry="1.4872881" />
  </g>
  <g
     inkscape:groupmode="layer"
     id="layer2"
     inkscape:label="磁鐵"
     transform="translate(-1.8444419e-6,-6.9254996)"
     style="display:inline">
    <path
       style="fill:#ffffff;fill-rule:evenodd;stroke:none"
       d="m 41.348682,39.590653 5.653383,4.375342 4.373316,-5.767488 -5.772399,-4.467456 z"
       id="path4172"
       inkscape:connector-curvature="0" />
  </g>
  <g
     inkscape:groupmode="layer"
     id="layer1"
     inkscape:label="星球轉"
     transform="translate(6.0428904,-4.7824197)"
     style="display:inline">
    <path
       inkscape:connector-curvature="0"
       style="fill:#ffffff"
       d="m 34.744755,7.7434142 c 4.13,-2.420001 8.730001,0.35 11.330001,3.6799998 -4.870001,2.79 -9.850001,5.649999 -15.450001,6.699999 0.4,-3.649999 0.12,-8.5999988 4.12,-10.3799988 z"
       id="path8" />
    <path
       inkscape:connector-curvature="0"
       style="fill:#ffffff"
       d="m 33.344755,21.663413 c 4.75,-2 9.37,-4.31 13.930001,-6.73 -1.37,2.61 -2.5,5.84 -5.510001,6.95 -2.67,1.46 -5.68,0.38 -8.42,-0.22 z"
       id="path16" />
    <path
       style="fill:#ffffff;fill-opacity:1;fill-rule:evenodd;stroke:none"
       d="m 30.088645,12.977962 c 0,0 -3.210716,2.04261 -3.802197,3.640402 -0.591481,1.597791 -0.470011,3.799315 0.485387,4.934765 0.955398,1.13545 3.802197,1.051671 3.802197,1.051671 l 1.415712,-0.485385 c 0,0 -1.085148,-1.765438 -1.739303,-3.438158 -0.261005,-0.667409 -1.288712,-0.09853 -2.103344,-0.444937 -0.814632,-0.346409 -0.485386,-1.941548 -0.485386,-1.941548 z"
       id="path4160"
       inkscape:connector-curvature="0"
       sodipodi:nodetypes="czzccszcc" />
    <path
       sodipodi:nodetypes="czzccszcc"
       inkscape:connector-curvature="0"
       id="path4165"
       d="m 30.088645,12.977962 c 0,0 -3.210716,2.04261 -3.802197,3.640402 -0.591481,1.597791 -0.470011,3.799315 0.485387,4.934765 0.955398,1.13545 3.802197,1.051671 3.802197,1.051671 l 1.415712,-0.485385 c 0,0 -1.085148,-1.765438 -1.739303,-3.438158 -0.261005,-0.667409 -1.288712,-0.09853 -2.103344,-0.444937 -0.814632,-0.346409 -0.485386,-1.941548 -0.485386,-1.941548 z"
       style="fill:#ffffff;fill-opacity:1;fill-rule:evenodd;stroke:none" />
    <path
       style="fill:#ffffff;fill-opacity:1;fill-rule:evenodd;stroke:none"
       d="m 42.799515,6.8701435 c 0,0 3.683434,-0.9556467 5.25547,-0.298765 1.572035,0.6568809 3.099515,2.2469324 3.278565,3.7200155 0.179049,1.473083 -1.823441,3.498253 -1.823441,3.498253 l -1.3204,0.704546 c 0,0 -0.55138,-1.997573 -1.328832,-3.616671 C 46.550676,10.231508 47.66757,9.8677037 47.969681,9.0356267 48.27179,8.2035484 46.880512,7.3566633 46.880512,7.3566633 z"
       id="path4398"
       inkscape:connector-curvature="0"
       sodipodi:nodetypes="czzccszcc" />
  </g>
  <g
     inkscape:groupmode="layer"
     id="layer4"
     inkscape:label="燒瓶與磁鐵"
     transform="translate(-1.8444419e-6,-6.9254996)"
     style="display:inline" />
  <g
     inkscape:groupmode="layer"
     id="layer5"
     inkscape:label="顯微鏡"
     style="display:inline"
     transform="translate(-1.8444419e-6,-6.9254996)">
    <path
       style="fill:#ffffff;stroke:none"
       d="m 15.634922,27.533745 c -0.783092,-0.173636 -1.352258,-0.451737 -1.942993,-0.949369 -0.654485,-0.551335 -1.173675,-1.374688 -1.399356,-2.219158 -0.151552,-0.567089 -0.151395,-1.551006 3.38e-4,-2.120838 0.408863,-1.535478 1.580343,-2.71399 3.114486,-3.133179 0.412119,-0.112608 1.279199,-0.153856 1.735787,-0.08258 1.386802,0.216504 2.601702,1.122204 3.2169,2.398179 0.300387,0.623028 0.383354,0.95754 0.41679,1.680437 0.05758,1.244857 -0.323354,2.261067 -1.186068,3.164059 -0.810908,0.848768 -1.787633,1.287944 -2.969942,1.335409 -0.424423,0.01704 -0.657979,-2.53e-4 -0.985942,-0.07296 z"
       id="path3021"
       inkscape:connector-curvature="0"
       transform="matrix(0.80000005,0,0,0.80000005,-1.0492446e-6,6.9254996)" />
    <g
       id="g3835"
       transform="matrix(0.92065588,-0.39037513,0.39037513,0.92065588,31.219298,8.2390744)" />
    <path
       style="fill:#ffffff;stroke:none"
       d="M 17.125 0 L 7.375 3.9375 L 7.1875 4 L 8.0625 6.15625 L 10.03125 5.34375 L 13.40625 13.75 L 19.375 11.28125 L 16.0625 3 L 18.03125 2.21875 L 17.125 0 z M 23.125 10.6875 L 10.34375 16.09375 L 12.125 20.25 L 12.5 20.09375 C 13.449608 18.926795 14.88199 18.15625 16.5 18.15625 C 19.341045 18.15625 21.625 20.471454 21.625 23.3125 C 21.625 25.278213 20.525637 26.947546 18.90625 27.8125 L 21.65625 34.1875 L 18.09375 35.6875 L 19.875 39.84375 L 21.53125 39.125 C 21.566794 39.466297 21.640318 39.823877 21.78125 40.15625 C 22.54386 41.954771 24.638973 42.793857 26.4375 42.03125 C 28.236019 41.26864 29.07511 39.173526 28.3125 37.375 C 28.172478 37.044775 27.968741 36.761598 27.75 36.5 L 33.59375 34.03125 C 33.630316 34.367135 33.705058 34.704162 33.84375 35.03125 C 34.606357 36.829771 36.670224 37.668857 38.46875 36.90625 C 40.26727 36.143641 41.106359 34.079777 40.34375 32.28125 C 40.202432 31.947968 40.002659 31.669591 39.78125 31.40625 L 41.53125 30.65625 L 39.75 26.5 L 28.375 31.34375 L 21.8125 16.125 L 24.875 14.8125 L 23.125 10.6875 z M 16.5 18.9375 C 16.053496 18.9375 15.623848 19.032118 15.21875 19.15625 L 18.59375 27.09375 C 19.933885 26.353161 20.84375 24.95615 20.84375 23.3125 C 20.84375 20.903806 18.908692 18.9375 16.5 18.9375 z M 12.25 23.09375 C 12.217051 23.111749 12.18898 23.138028 12.15625 23.15625 C 12.154424 23.208218 12.125 23.260075 12.125 23.3125 C 12.125 24.884362 12.974368 26.235284 14.21875 27 C 14.180619 26.015176 12.650437 24.139478 12.25 23.09375 z M 11.34375 23.65625 C 2.6494349 29.303758 2.4862001 43.319707 5.96875 51.6875 C 7.1812498 50.7125 8.3812501 49.70625 9.59375 48.71875 C 8.9937502 45.50625 8.0125 42.318749 7.875 39.03125 C 8.2328723 35.415822 9.7034781 29.724666 13.75 27.65625 C 12.388802 26.808214 11.462756 25.342774 11.34375 23.65625 z "
       transform="matrix(0.80000005,0,0,0.80000005,-1.0492446e-6,6.9254996)"
       id="path3040" />
  </g>
</svg>
