<?xml version="1.0" encoding="iso-8859-1"?>
<!-- Generator: Adobe Illustrator 18.1.1, SVG Export Plug-In . SVG Version: 6.00 Build 0)  -->
<svg version="1.1" id="Capa_1" xmlns="http://www.w3.org/2000/svg" xmlns:xlink="http://www.w3.org/1999/xlink" x="0px" y="0px"
	 viewBox="0 0 612.003 612.003" style="enable-background:new 0 0 612.003 612.003;" xml:space="preserve">
<g>
	<g>
		<path d="M153.422,510.297H259.67h0.107h106.249c143.456-75.332,126.231-310.404,126.231-310.404v-3.478H259.783h-0.107H27.712
			v3.478C27.712,199.894,9.971,434.966,153.422,510.297z"/>
		<path d="M200.115,172.385c-7.081-28.72,10.276-46.448,10.634-46.812c0.019-0.019,0.013-0.013,0.038-0.031
			c27.923-24.627,20.591-49.248,11.651-63.818c-0.948-1.544-3.233-0.37-2.662,1.35c3.095,9.266-0.477,19.178-21.526,43.736
			c-23.566,27.496-9.247,54.986-0.76,66.863C198.451,175.022,200.51,173.992,200.115,172.385z"/>
		<path d="M320.111,172.473c-10.314-37.515,12.474-60.761,12.901-61.194c0.019-0.019,0.019-0.013,0.038-0.031
			c37.691-33.234,24.571-66.455,12.411-84.227c-1.023-1.494-3.365-0.144-2.586,1.488c6.165,13.001,3.804,24.671-25.669,59.054
			c-30.974,36.134-10.151,72.274,0.295,86.204C318.504,175.103,320.551,174.074,320.111,172.473z"/>
		<path d="M511.171,535.408H12.577c-10.848,0-16.586,12.825-9.36,20.917l22.461,25.117c2.379,2.668,5.782,4.187,9.354,4.187H488.71
			c3.572,0,6.974-1.519,9.36-4.187l22.455-25.117C527.75,548.233,522.013,535.408,511.171,535.408z"/>
		<path d="M611.996,299.212c0-83.072-78.226-78.044-93.913-76.198c0.031,10.44-0.257,23.698-1.255,38.827
			c11.406-2.618,55.777-11.281,53.259,36.812c0,0-4.608,65.451-78.138,91.082c-6.987,19.85-15.769,39.505-26.868,58.037
			C615.493,388.926,611.996,299.212,611.996,299.212z"/>
	</g>
</g>
<g>
</g>
<g>
</g>
<g>
</g>
<g>
</g>
<g>
</g>
<g>
</g>
<g>
</g>
<g>
</g>
<g>
</g>
<g>
</g>
<g>
</g>
<g>
</g>
<g>
</g>
<g>
</g>
<g>
</g>
</svg>
